<?xml version="1.0" encoding="UTF-8"?>
<!DOCTYPE svg PUBLIC "-//W3C//DTD SVG 1.1//EN" "http://www.w3.org/Graphics/SVG/1.1/DTD/svg11.dtd">
<!-- Creator: CorelDRAW 2017 -->
<svg xmlns="http://www.w3.org/2000/svg" xml:space="preserve" width="8.26772in" height="11.6929in" version="1.1" style="shape-rendering:geometricPrecision; text-rendering:geometricPrecision; image-rendering:optimizeQuality; fill-rule:evenodd; clip-rule:evenodd"
viewBox="0 0 8268 11693"
 xmlns:xlink="http://www.w3.org/1999/xlink">
 <defs>
  <style type="text/css">
   <![CDATA[
    .fil0 {fill:#022C80}
   ]]>
  </style>
 </defs>
 <g id="Layer_x0020_1">
  <metadata id="CorelCorpID_0Corel-Layer"/>
  <path class="fil0" d="M4118 5867l-25 -25c-2,-2 -5,-3 -8,-3 -3,0 -6,1 -8,3 -2,2 -3,5 -3,8 0,3 1,6 3,8l33 33c2,2 5,3 8,3 3,0 6,-1 8,-3l65 -65c2,-2 3,-5 3,-8 0,-3 -1,-6 -3,-8 -2,-2 -5,-3 -8,-3 -3,0 -6,1 -8,3l-57 57zm16 94c-16,0 -31,-3 -45,-9 -14,-6 -26,-14 -36,-24 -10,-10 -18,-22 -24,-36 -6,-14 -9,-29 -9,-45 0,-16 3,-31 9,-45 6,-14 14,-26 24,-36 10,-10 22,-18 36,-25 14,-6 29,-9 45,-9 16,0 31,3 45,9 14,6 26,14 36,25 10,10 18,22 24,36 6,14 9,29 9,45 0,16 -3,31 -9,45 -6,14 -14,26 -24,36 -10,10 -22,18 -36,24 -14,6 -29,9 -45,9z"/>
 </g>
</svg>
